<svg xmlns="http://www.w3.org/2000/svg" width="128" height="128" viewBox="0 0 128 128" role="img" aria-label="WRTA bus tracker icon">
  <rect width="128" height="128" rx="18" fill="#f4f4f1"/>
  <path d="M31 25h66c9 0 16 7 16 16v48c0 8-6 15-14 16l6 10H93l-6-10H41l-6 10H23l6-10c-8-1-14-8-14-16V41c0-9 7-16 16-16z" fill="#171717"/>
  <path d="M29 43c0-4 3-7 7-7h56c4 0 7 3 7 7v21H29z" fill="#ffffff"/>
  <path d="M35 74h58" stroke="#ffffff" stroke-width="7" stroke-linecap="round"/>
  <circle cx="42" cy="92" r="8" fill="#f4f4f1"/>
  <circle cx="86" cy="92" r="8" fill="#f4f4f1"/>
  <path d="M43 50h16M69 50h16" stroke="#171717" stroke-width="5" stroke-linecap="round"/>
</svg>
