<svg xmlns="http://www.w3.org/2000/svg" viewBox="0 0 128 128" role="img" aria-label="WRTA bus icon">
  <defs>
    <linearGradient id="paper" x1="18" x2="110" y1="14" y2="118" gradientUnits="userSpaceOnUse">
      <stop stop-color="#fbfff9"/>
      <stop offset="1" stop-color="#dfece4"/>
    </linearGradient>
    <linearGradient id="bus" x1="27" x2="103" y1="33" y2="93" gradientUnits="userSpaceOnUse">
      <stop stop-color="#df875a"/>
      <stop offset=".58" stop-color="#c75d32"/>
      <stop offset="1" stop-color="#91492f"/>
    </linearGradient>
    <filter id="shadow" x="-20%" y="-20%" width="140%" height="150%">
      <feDropShadow dx="0" dy="8" stdDeviation="8" flood-color="#513629" flood-opacity=".22"/>
    </filter>
  </defs>
  <rect x="10" y="10" width="108" height="108" rx="26" fill="url(#paper)"/>
  <path d="M33 28c15-10 49-10 63 0 6 4 8 11 8 23v33c0 8-6 14-14 14H40c-8 0-14-6-14-14V51c0-12 2-19 7-23Z" fill="url(#bus)" filter="url(#shadow)"/>
  <path d="M39 38c10-5 42-5 52 0 3 2 4 6 4 13v10H35V51c0-7 1-11 4-13Z" fill="#f8efe1"/>
  <path d="M35 67h60v12H35z" fill="#653527" opacity=".22"/>
  <circle cx="43" cy="94" r="8" fill="#2b2420"/>
  <circle cx="87" cy="94" r="8" fill="#2b2420"/>
  <circle cx="43" cy="94" r="3" fill="#f3f6f2"/>
  <circle cx="87" cy="94" r="3" fill="#f3f6f2"/>
  <path d="M46 54h14M68 54h14" stroke="#c75d32" stroke-width="5" stroke-linecap="round"/>
  <path d="M49 31h31" stroke="#f5d7a5" stroke-width="6" stroke-linecap="round"/>
  <path d="M52 109c11 5 31 5 42-5" fill="none" stroke="#8d7d68" stroke-width="4" stroke-linecap="round" opacity=".45"/>
  <text x="64" y="84" text-anchor="middle" font-family="Inter, Arial, sans-serif" font-size="20" font-weight="900" fill="#fbfff9">BUS</text>
</svg>
